<?xml version="1.0" encoding="utf-8"?>
<!-- Generator: Adobe Illustrator 19.0.0, SVG Export Plug-In . SVG Version: 6.00 Build 0)  -->
<svg version="1.1" id="Layer_1" xmlns="http://www.w3.org/2000/svg" xmlns:xlink="http://www.w3.org/1999/xlink" x="0px" y="0px"
	 viewBox="599.2 1375.3 205 227.3" style="enable-background:new 599.2 1375.3 205 227.3;" xml:space="preserve">
<style type="text/css">
	.st0{fill:url(#manface_1_);}
	.st1{fill:#A7B7AA;}
	.st2{fill:url(#manface_2_);}
	.st3{fill:url(#manface_3_);}
	.st4{fill:url(#manface_4_);}
	.st5{fill:url(#manface_5_);}
	.st6{fill:url(#manface_6_);}
	.st7{fill:url(#manface_7_);}
	.st8{fill:#FEFBDF;}
	.st9{fill:url(#manface_8_);}
	.st10{fill:#FCD829;}
	.st11{fill:url(#manface_9_);}
	.st12{fill:url(#manface_10_);}
	.st13{fill:url(#manface_11_);}
	.st14{fill:url(#manface_12_);}
	.st15{fill:url(#manface_13_);}
	.st16{fill:url(#manface_14_);}
	.st17{fill:url(#manface_15_);}
	.st18{fill:url(#manface_16_);}
	.st19{fill:url(#manface_17_);}
	.st20{fill:url(#manface_18_);}
	.st21{fill:url(#manface_19_);}
	.st22{fill:url(#manface_20_);}
	.st23{fill:url(#manface_21_);}
	.st24{fill:url(#manface_22_);}
	.st25{fill:url(#manface_23_);}
	.st26{fill:#9FADA1;}
	.st27{fill:url(#manface_24_);}
	.st28{fill:url(#manface_25_);}
	.st29{fill:url(#manface_26_);}
	.st30{fill:url(#manface_27_);}
	.st31{fill:url(#manface_28_);}
	.st32{fill:url(#manface_29_);}
	.st33{fill:url(#manface_30_);}
	.st34{opacity:0.25;fill:#FFFFFF;enable-background:new    ;}
</style>
<g id="manface_4916_">
	<g id="manface_4918_">
		
			<linearGradient id="manface_1_" gradientUnits="userSpaceOnUse" x1="704.4" y1="-779.8666" x2="704.4" y2="-792.3666" gradientTransform="matrix(1 0 0 -1 0 794.0001)">
			<stop  offset="0" style="stop-color:#233044;stop-opacity:0"/>
			<stop  offset="1" style="stop-color:#233044;stop-opacity:5.000000e-02"/>
		</linearGradient>
		<circle id="manface_5028_" class="st0" cx="704.4" cy="1580.1" r="6.2"/>
		<g id="manface_5025_">
			<path id="manface_5027_" class="st1" d="M735.2,1551.5c-3.5,0-6.2-2.8-6.2-6.2s12.5-3.5,12.5,0S738.6,1551.5,735.2,1551.5z"/>
			
				<linearGradient id="manface_2_" gradientUnits="userSpaceOnUse" x1="735.25" y1="-757.4554" x2="735.25" y2="-748.6166" gradientTransform="matrix(1 0 0 -1 0 794.0001)">
				<stop  offset="0" style="stop-color:#233044;stop-opacity:0"/>
				<stop  offset="1" style="stop-color:#233044;stop-opacity:0.1"/>
			</linearGradient>
			<path id="manface_5026_" class="st2" d="M735.2,1551.5c-3.5,0-6.2-2.8-6.2-6.2s12.5-3.5,12.5,0S738.6,1551.5,735.2,1551.5z"/>
		</g>
		<g id="manface_5022_">
			<circle id="manface_5024_" class="st1" cx="728.9" cy="1545.2" r="6.2"/>
			
				<linearGradient id="manface_3_" gradientUnits="userSpaceOnUse" x1="728.9" y1="-757.4554" x2="728.9" y2="-744.9554" gradientTransform="matrix(1 0 0 -1 0 794.0001)">
				<stop  offset="0" style="stop-color:#233044;stop-opacity:0"/>
				<stop  offset="1" style="stop-color:#233044;stop-opacity:0.1"/>
			</linearGradient>
			<circle id="manface_5023_" class="st3" cx="728.9" cy="1545.2" r="6.2"/>
		</g>
		<g id="manface_5019_">
			<path id="manface_5021_" class="st1" d="M716.9,1551.5c-6.9,0-12.5-5.6-12.5-12.5s25-6.9,25,0S723.8,1551.5,716.9,1551.5z"/>
			
				<linearGradient id="manface_4_" gradientUnits="userSpaceOnUse" x1="716.9" y1="-757.4554" x2="716.9" y2="-739.7804" gradientTransform="matrix(1 0 0 -1 0 794.0001)">
				<stop  offset="0" style="stop-color:#233044;stop-opacity:0"/>
				<stop  offset="1" style="stop-color:#233044;stop-opacity:0.1"/>
			</linearGradient>
			<path id="manface_5020_" class="st4" d="M716.9,1551.5c-6.9,0-12.5-5.6-12.5-12.5s25-6.9,25,0S723.8,1551.5,716.9,1551.5z"/>
		</g>
		<g id="manface_5016_">
			<path id="manface_5018_" class="st1" d="M673.7,1551.5c3.5,0,6.2-2.8,6.2-6.2s-12.5-3.5-12.5,0S670.2,1551.5,673.7,1551.5z"/>
			
				<linearGradient id="manface_5_" gradientUnits="userSpaceOnUse" x1="5761.2881" y1="-757.4554" x2="5761.2881" y2="-748.6166" gradientTransform="matrix(-1 0 0 -1 6434.938 794.0001)">
				<stop  offset="0" style="stop-color:#233044;stop-opacity:0"/>
				<stop  offset="1" style="stop-color:#233044;stop-opacity:0.1"/>
			</linearGradient>
			<path id="manface_5017_" class="st5" d="M673.7,1551.5c3.5,0,6.2-2.8,6.2-6.2s-12.5-3.5-12.5,0S670.2,1551.5,673.7,1551.5z"/>
		</g>
		<g id="manface_5013_">
			<circle id="manface_5015_" class="st1" cx="679.9" cy="1545.2" r="6.2"/>
			
				<linearGradient id="manface_6_" gradientUnits="userSpaceOnUse" x1="5755.0381" y1="-757.4554" x2="5755.0381" y2="-744.9554" gradientTransform="matrix(-1 0 0 -1 6434.938 794.0001)">
				<stop  offset="0" style="stop-color:#233044;stop-opacity:0"/>
				<stop  offset="1" style="stop-color:#233044;stop-opacity:0.1"/>
			</linearGradient>
			<circle id="manface_5014_" class="st6" cx="679.9" cy="1545.2" r="6.2"/>
		</g>
		<g id="manface_5010_">
			<path id="manface_5012_" class="st1" d="M691.9,1551.5c6.9,0,12.5-5.6,12.5-12.5s-25-6.9-25,0S685,1551.5,691.9,1551.5z"/>
			
				<linearGradient id="manface_7_" gradientUnits="userSpaceOnUse" x1="5743.0381" y1="-757.4554" x2="5743.0381" y2="-739.7804" gradientTransform="matrix(-1 0 0 -1 6434.938 794.0001)">
				<stop  offset="0" style="stop-color:#233044;stop-opacity:0"/>
				<stop  offset="1" style="stop-color:#233044;stop-opacity:0.1"/>
			</linearGradient>
			<path id="manface_5011_" class="st7" d="M691.9,1551.5c6.9,0,12.5-5.6,12.5-12.5s-25-6.9-25,0S685,1551.5,691.9,1551.5z"/>
		</g>
		<g id="manface_5001_">
			<path id="manface_5009_" class="st8" d="M710.4,1505.1c0-5,6.2-20,6.2-25c0-6.9-5.6-12.5-12.5-12.5s-12.5,5.6-12.5,12.5
				c0,5,6.3,20,6.3,25s-6.3,20-6.3,25c0,6.9,5.6,12.5,12.5,12.5s12.5-5.6,12.5-12.5C716.7,1525.1,710.4,1510.2,710.4,1505.1z"/>
			
				<linearGradient id="manface_8_" gradientUnits="userSpaceOnUse" x1="704.1006" y1="-673.6" x2="704.1006" y2="-748.6" gradientTransform="matrix(1 0 0 -1 0 794.0001)">
				<stop  offset="0" style="stop-color:#FEFBDF;stop-opacity:0"/>
				<stop  offset="1" style="stop-color:#E8E7D1"/>
			</linearGradient>
			<path id="manface_5008_" class="st9" d="M710.4,1505.1c0-5,6.2-20,6.2-25c0-6.9-5.6-12.5-12.5-12.5s-12.5,5.6-12.5,12.5
				c0,5,6.3,20,6.3,25s-6.3,20-6.3,25c0,6.9,5.6,12.5,12.5,12.5s12.5-5.6,12.5-12.5C716.7,1525.1,710.4,1510.2,710.4,1505.1z"/>
			<path id="manface_5007_" class="st10" d="M691.7,1537.4c0-6.9,5.6-12.5,12.5-12.5s12.5,5.6,12.5,12.5S691.7,1544.3,691.7,1537.4z
				"/>
			<circle id="manface_5006_" class="st10" cx="691.7" cy="1536.4" r="6.2"/>
			<circle id="manface_5005_" class="st10" cx="716.7" cy="1536.4" r="6.2"/>
			
				<linearGradient id="manface_9_" gradientUnits="userSpaceOnUse" x1="685.4161" y1="-742.4" x2="697.9161" y2="-742.4" gradientTransform="matrix(1 0 0 -1 0 794.0001)">
				<stop  offset="0" style="stop-color:#233044;stop-opacity:0"/>
				<stop  offset="1" style="stop-color:#233044;stop-opacity:0.1"/>
			</linearGradient>
			<circle id="manface_5004_" class="st11" cx="691.7" cy="1536.4" r="6.2"/>
			
				<linearGradient id="manface_10_" gradientUnits="userSpaceOnUse" x1="710.4161" y1="-742.4" x2="722.9161" y2="-742.4" gradientTransform="matrix(1 0 0 -1 0 794.0001)">
				<stop  offset="0" style="stop-color:#233044;stop-opacity:0"/>
				<stop  offset="1" style="stop-color:#233044;stop-opacity:0.1"/>
			</linearGradient>
			<circle id="manface_5003_" class="st12" cx="716.7" cy="1536.4" r="6.2"/>
			<path id="manface_5002_" class="st10" d="M691.7,1537.4c0-6.9,5.6-12.5,12.5-12.5s12.5,5.6,12.5,12.5S691.7,1544.3,691.7,1537.4z
				"/>
		</g>
		
			<linearGradient id="manface_11_" gradientUnits="userSpaceOnUse" x1="766.7" y1="-718.6" x2="716.7" y2="-718.6" gradientTransform="matrix(1 0 0 -1 0 794.0001)">
			<stop  offset="0" style="stop-color:#233044;stop-opacity:0"/>
			<stop  offset="1" style="stop-color:#233044;stop-opacity:5.000000e-02"/>
		</linearGradient>
		<circle id="manface_5000_" class="st13" cx="741.7" cy="1512.6" r="25"/>
		
			<linearGradient id="manface_12_" gradientUnits="userSpaceOnUse" x1="641.7" y1="-718.6" x2="691.7" y2="-718.6" gradientTransform="matrix(1 0 0 -1 0 794.0001)">
			<stop  offset="0" style="stop-color:#233044;stop-opacity:0"/>
			<stop  offset="1" style="stop-color:#233044;stop-opacity:5.000000e-02"/>
		</linearGradient>
		<circle id="manface_4999_" class="st14" cx="666.7" cy="1512.6" r="25"/>
		<g id="manface_4985_">
			
				<linearGradient id="manface_13_" gradientUnits="userSpaceOnUse" x1="741.7" y1="-743.6" x2="741.7" y2="-693.6" gradientTransform="matrix(1 0 0 -1 0 794.0001)">
				<stop  offset="0" style="stop-color:#233044;stop-opacity:0"/>
				<stop  offset="1" style="stop-color:#233044;stop-opacity:0.1"/>
			</linearGradient>
			<ellipse id="manface_4998_" class="st15" cx="741.7" cy="1512.6" rx="12.5" ry="25"/>
			
				<linearGradient id="manface_14_" gradientUnits="userSpaceOnUse" x1="741.7" y1="-733.6" x2="741.7" y2="-683.6" gradientTransform="matrix(1 0 0 -1 0 794.0001)">
				<stop  offset="0" style="stop-color:#233044;stop-opacity:0"/>
				<stop  offset="1" style="stop-color:#233044;stop-opacity:0.1"/>
			</linearGradient>
			<ellipse id="manface_4997_" class="st16" cx="741.7" cy="1502.6" rx="12.5" ry="25"/>
			
				<linearGradient id="manface_15_" gradientUnits="userSpaceOnUse" x1="666.7" y1="-743.6" x2="666.7" y2="-693.6" gradientTransform="matrix(1 0 0 -1 0 794.0001)">
				<stop  offset="0" style="stop-color:#233044;stop-opacity:0"/>
				<stop  offset="1" style="stop-color:#233044;stop-opacity:0.1"/>
			</linearGradient>
			<ellipse id="manface_4996_" class="st17" cx="666.7" cy="1512.6" rx="12.5" ry="25"/>
			
				<linearGradient id="manface_16_" gradientUnits="userSpaceOnUse" x1="666.7" y1="-733.6" x2="666.7" y2="-683.6" gradientTransform="matrix(1 0 0 -1 0 794.0001)">
				<stop  offset="0" style="stop-color:#233044;stop-opacity:0"/>
				<stop  offset="1" style="stop-color:#233044;stop-opacity:0.1"/>
			</linearGradient>
			<ellipse id="manface_4995_" class="st18" cx="666.7" cy="1502.6" rx="12.5" ry="25"/>
			<g id="manface_4986_">
				<g id="manface_4991_">
					<ellipse id="manface_4994_" class="st10" cx="666.7" cy="1492.6" rx="12.5" ry="25"/>
					
						<linearGradient id="manface_17_" gradientUnits="userSpaceOnUse" x1="654.1662" y1="-698.6" x2="679.1662" y2="-698.6" gradientTransform="matrix(1 0 0 -1 0 794.0001)">
						<stop  offset="0" style="stop-color:#233044;stop-opacity:0"/>
						<stop  offset="1" style="stop-color:#233044;stop-opacity:0.1"/>
					</linearGradient>
					<ellipse id="manface_4993_" class="st19" cx="666.7" cy="1492.6" rx="12.5" ry="25"/>
					
						<linearGradient id="manface_18_" gradientUnits="userSpaceOnUse" x1="666.7" y1="-703.6" x2="666.7" y2="-673.6" gradientTransform="matrix(1 0 0 -1 0 794.0001)">
						<stop  offset="0" style="stop-color:#233044;stop-opacity:0"/>
						<stop  offset="1" style="stop-color:#233044;stop-opacity:0.1"/>
					</linearGradient>
					<path id="manface_4992_" class="st20" d="M666.7,1467.6c-6.9,0-12.5,11.2-12.5,25c0,1.7,0.1,3.4,0.3,5c1.2-11.4,6.2-20,12.2-20
						s11.1,8.6,12.2,20c0.2-1.6,0.3-3.3,0.3-5C679.2,1478.8,673.6,1467.6,666.7,1467.6z"/>
				</g>
				<g id="manface_4987_">
					<ellipse id="manface_4990_" class="st10" cx="741.7" cy="1492.6" rx="12.5" ry="25"/>
					
						<linearGradient id="manface_19_" gradientUnits="userSpaceOnUse" x1="729.166" y1="-698.6" x2="754.166" y2="-698.6" gradientTransform="matrix(1 0 0 -1 0 794.0001)">
						<stop  offset="0" style="stop-color:#233044;stop-opacity:0"/>
						<stop  offset="1" style="stop-color:#233044;stop-opacity:0.1"/>
					</linearGradient>
					<ellipse id="manface_4989_" class="st21" cx="741.7" cy="1492.6" rx="12.5" ry="25"/>
					
						<linearGradient id="manface_20_" gradientUnits="userSpaceOnUse" x1="741.7" y1="-703.6" x2="741.7" y2="-673.6" gradientTransform="matrix(1 0 0 -1 0 794.0001)">
						<stop  offset="0" style="stop-color:#233044;stop-opacity:0"/>
						<stop  offset="1" style="stop-color:#233044;stop-opacity:0.1"/>
					</linearGradient>
					<path id="manface_4988_" class="st22" d="M741.7,1477.6c6,0,11.1,8.6,12.2,20c0.2-1.6,0.3-3.3,0.3-5c0-13.8-5.6-25-12.5-25
						s-12.5,11.2-12.5,25c0,1.7,0.1,3.4,0.3,5C730.6,1486.2,735.6,1477.6,741.7,1477.6z"/>
				</g>
			</g>
		</g>
		<g id="manface_4969_">
			<g id="manface_4980_">
				<circle id="manface_4982_" class="st1" cx="647.9" cy="1475.8" r="6.2"/>
				
					<linearGradient id="manface_21_" gradientUnits="userSpaceOnUse" x1="5326.7876" y1="-688.0804" x2="5326.7876" y2="-675.5804" gradientTransform="matrix(-1 0 0 -1 5974.6875 794.0001)">
					<stop  offset="0" style="stop-color:#233044;stop-opacity:0"/>
					<stop  offset="1" style="stop-color:#233044;stop-opacity:0.1"/>
				</linearGradient>
				<circle id="manface_4981_" class="st23" cx="647.9" cy="1475.8" r="6.2"/>
			</g>
			<g id="manface_4977_">
				<path id="manface_4979_" class="st1" d="M654.2,1475.8c3.5,0,6.2-2.8,6.2-6.2s-12.5-3.5-12.5,0S650.7,1475.8,654.2,1475.8z"/>
				
					<linearGradient id="manface_22_" gradientUnits="userSpaceOnUse" x1="5320.5376" y1="-681.8304" x2="5320.5376" y2="-672.9916" gradientTransform="matrix(-1 0 0 -1 5974.6875 794.0001)">
					<stop  offset="0" style="stop-color:#233044;stop-opacity:0"/>
					<stop  offset="1" style="stop-color:#233044;stop-opacity:0.1"/>
				</linearGradient>
				<path id="manface_4978_" class="st24" d="M654.2,1475.8c3.5,0,6.2-2.8,6.2-6.2s-12.5-3.5-12.5,0S650.7,1475.8,654.2,1475.8z"/>
			</g>
			<g id="manface_4974_">
				<circle id="manface_4976_" class="st1" cx="660.4" cy="1469.6" r="6.2"/>
				
					<linearGradient id="manface_23_" gradientUnits="userSpaceOnUse" x1="5314.2876" y1="-681.8304" x2="5314.2876" y2="-669.3304" gradientTransform="matrix(-1 0 0 -1 5974.6875 794.0001)">
					<stop  offset="0" style="stop-color:#233044;stop-opacity:0"/>
					<stop  offset="1" style="stop-color:#233044;stop-opacity:0.1"/>
				</linearGradient>
				<circle id="manface_4975_" class="st25" cx="660.4" cy="1469.6" r="6.2"/>
			</g>
			<g id="manface_4970_">
				<g id="manface_4972_">
					<path id="manface_4973_" class="st26" d="M672.9,1475.8c6.9,0,12.5-5.6,12.5-12.5s-25-6.9-25,0S666,1475.8,672.9,1475.8z"/>
				</g>
				
					<linearGradient id="manface_24_" gradientUnits="userSpaceOnUse" x1="5301.7876" y1="-681.8304" x2="5301.7876" y2="-664.1554" gradientTransform="matrix(-1 0 0 -1 5974.6875 794.0001)">
					<stop  offset="0" style="stop-color:#233044;stop-opacity:0"/>
					<stop  offset="1" style="stop-color:#233044;stop-opacity:0.1"/>
				</linearGradient>
				<path id="manface_4971_" class="st27" d="M672.9,1475.8c6.9,0,12.5-5.6,12.5-12.5s-25-6.9-25,0S666,1475.8,672.9,1475.8z"/>
			</g>
		</g>
		<g id="manface_4955_">
			<g id="manface_4966_">
				<circle id="manface_4968_" class="st1" cx="760.4" cy="1475.8" r="6.2"/>
				
					<linearGradient id="manface_25_" gradientUnits="userSpaceOnUse" x1="450.8992" y1="-688.0804" x2="450.8992" y2="-675.5804" gradientTransform="matrix(1 0 0 -1 309.5008 794.0001)">
					<stop  offset="0" style="stop-color:#233044;stop-opacity:0"/>
					<stop  offset="1" style="stop-color:#233044;stop-opacity:0.1"/>
				</linearGradient>
				<circle id="manface_4967_" class="st28" cx="760.4" cy="1475.8" r="6.2"/>
			</g>
			<g id="manface_4963_">
				<path id="manface_4965_" class="st1" d="M754.2,1475.8c-3.5,0-6.2-2.8-6.2-6.2s12.5-3.5,12.5,0S757.6,1475.8,754.2,1475.8z"/>
				
					<linearGradient id="manface_26_" gradientUnits="userSpaceOnUse" x1="444.7492" y1="-681.8304" x2="444.7492" y2="-672.9916" gradientTransform="matrix(1 0 0 -1 309.5008 794.0001)">
					<stop  offset="0" style="stop-color:#233044;stop-opacity:0"/>
					<stop  offset="1" style="stop-color:#233044;stop-opacity:0.1"/>
				</linearGradient>
				<path id="manface_4964_" class="st29" d="M754.2,1475.8c-3.5,0-6.2-2.8-6.2-6.2s12.5-3.5,12.5,0S757.6,1475.8,754.2,1475.8z"/>
			</g>
			<g id="manface_4960_">
				<circle id="manface_4962_" class="st1" cx="747.9" cy="1469.6" r="6.2"/>
				
					<linearGradient id="manface_27_" gradientUnits="userSpaceOnUse" x1="438.3992" y1="-681.8304" x2="438.3992" y2="-669.3304" gradientTransform="matrix(1 0 0 -1 309.5008 794.0001)">
					<stop  offset="0" style="stop-color:#233044;stop-opacity:0"/>
					<stop  offset="1" style="stop-color:#233044;stop-opacity:0.1"/>
				</linearGradient>
				<circle id="manface_4961_" class="st30" cx="747.9" cy="1469.6" r="6.2"/>
			</g>
			<g id="manface_4956_">
				<g id="manface_4958_">
					<path id="manface_4959_" class="st26" d="M735.4,1475.8c-6.9,0-12.5-5.6-12.5-12.5s25-6.9,25,0S742.3,1475.8,735.4,1475.8z"/>
				</g>
				
					<linearGradient id="manface_28_" gradientUnits="userSpaceOnUse" x1="425.8992" y1="-681.8304" x2="425.8992" y2="-664.1554" gradientTransform="matrix(1 0 0 -1 309.5008 794.0001)">
					<stop  offset="0" style="stop-color:#233044;stop-opacity:0"/>
					<stop  offset="1" style="stop-color:#233044;stop-opacity:0.1"/>
				</linearGradient>
				<path id="manface_4957_" class="st31" d="M735.4,1475.8c-6.9,0-12.5-5.6-12.5-12.5s25-6.9,25,0S742.3,1475.8,735.4,1475.8z"/>
			</g>
		</g>
		<g id="manface_4922_">
			
				<linearGradient id="manface_29_" gradientUnits="userSpaceOnUse" x1="704.1006" y1="-769.1182" x2="704.1006" y2="-756.6182" gradientTransform="matrix(1 0 0 -1 0 794.0001)">
				<stop  offset="0" style="stop-color:#FEFBDF;stop-opacity:0"/>
				<stop  offset="1" style="stop-color:#E8E7D1"/>
			</linearGradient>
			<path id="manface_4923_" class="st32" d="M710.4,1551.5c-0.4,3.1-3,5.4-6.2,5.4s-5.8-2.4-6.2-5.4c-5.6,1.1-12.6,3.1-12.6,5.4
				c0,3.5,2.8,6.2,6.2,6.2c1.7,0,9.3,0,12.5,0s10.8,0,12.5,0c3.5,0,6.2-2.8,6.2-6.2C722.9,1554.6,715.9,1552.5,710.4,1551.5z"/>
		</g>
		
			<linearGradient id="manface_30_" gradientUnits="userSpaceOnUse" x1="704.1121" y1="-766.65" x2="704.1121" y2="-798.3651" gradientTransform="matrix(1 0 0 -1 0 794.0001)">
			<stop  offset="0" style="stop-color:#233044;stop-opacity:0"/>
			<stop  offset="1" style="stop-color:#233044;stop-opacity:5.000000e-02"/>
		</linearGradient>
		<path id="manface_4919_" class="st33" d="M652.6,1568.9c7.3,7.3,32.1,23.5,39,23.5s18.1,0,25,0s31.7-16.2,39-23.5
			C766.7,1557.9,641.7,1557.9,652.6,1568.9z"/>
	</g>
	<path id="manface_4917_" class="st34" d="M666.7,1517.6c-6.9,0-12.5-11.2-12.5-25S673.6,1517.6,666.7,1517.6z"/>
</g>
<path id="manface_4915_" class="st34" d="M741.7,1517.6c-6.9,0-12.5-11.2-12.5-25S748.6,1517.6,741.7,1517.6z"/>
</svg>
