<?xml version="1.0" encoding="utf-8"?>
<!-- Generator: Adobe Illustrator 19.0.0, SVG Export Plug-In . SVG Version: 6.00 Build 0)  -->
<svg version="1.1" id="Layer_1" xmlns="http://www.w3.org/2000/svg" xmlns:xlink="http://www.w3.org/1999/xlink" x="0px" y="0px"
	 viewBox="599.2 1375.3 205 227.3" style="enable-background:new 599.2 1375.3 205 227.3;" xml:space="preserve">
<style type="text/css">
	.st0{fill:none;stroke:#000000;stroke-miterlimit:10;}
	.st1{opacity:0.25;fill:none;stroke:#000000;stroke-miterlimit:10;enable-background:new    ;}
</style>
<g id="manface_5047_">
	<path id="manface_5049_" class="st0" d="M604.7,1482.4c-6.2,6.2-7.1,15.6-2.9,22.8c-1.7,2.8-2.6,6.1-2.6,9.5
		c0,10.4,8.4,18.8,18.8,18.8s18.8-8.4,18.8-18.8c0-4.9-1.9-9.3-4.9-12.6C628,1491.8,610.4,1476.7,604.7,1482.4z"/>
	<path id="manface_5048_" class="st0" d="M793.7,1482.7c-5.7-5.7-22.7,8.8-26.9,19.1c-3.2,3.4-5.2,7.9-5.2,12.9
		c0,10.4,8.4,18.8,18.8,18.8s18.8-8.4,18.8-18.8c0-3.4-0.9-6.6-2.5-9.4C800.8,1498.2,799.8,1488.9,793.7,1482.7z"/>
</g>
<g id="manface_5044_">
	<path id="manface_5046_" class="st0" d="M609.7,1477.4c-6.2,6.2-7.1,15.6-2.9,22.8c-1.7,2.8-2.6,6.1-2.6,9.5
		c0,10.4,8.4,18.8,18.8,18.8s18.8-8.4,18.8-18.8c0-4.9-1.9-9.3-4.9-12.6C633,1486.8,615.4,1471.7,609.7,1477.4z"/>
	<path id="manface_5045_" class="st0" d="M798.7,1477.7c-5.7-5.7-22.7,8.8-26.9,19.1c-3.2,3.4-5.2,7.9-5.2,12.9
		c0,10.4,8.4,18.8,18.8,18.8s18.8-8.4,18.8-18.8c0-3.4-0.9-6.6-2.5-9.4C805.8,1493.2,804.8,1483.9,798.7,1477.7z"/>
</g>
<path id="manface_5043_" class="st0" d="M609.7,1477.4c-6.2,6.2-7.1,15.6-2.9,22.8c-1.7,2.8-2.6,6.1-2.6,9.5
	c0,10.4,8.4,18.8,18.8,18.8s18.8-8.4,18.8-18.8c0-4.9-1.9-9.3-4.9-12.6C633,1486.8,615.4,1471.7,609.7,1477.4z"/>
<path id="manface_5042_" class="st0" d="M798.7,1477.7c-5.7-5.7-22.7,8.8-26.9,19.1c-3.2,3.4-5.2,7.9-5.2,12.9
	c0,10.4,8.4,18.8,18.8,18.8s18.8-8.4,18.8-18.8c0-3.4-0.9-6.6-2.5-9.4C805.8,1493.2,804.8,1483.9,798.7,1477.7z"/>
<g id="manface_4916_">
	<g id="manface_4918_">
		<path id="manface_5040_" class="st0" d="M779.2,1492.3c0-14.1-12.5-65.5-23.5-76.5c-14.1-14.1-88.9-14.1-103,0
			c-11,11-23.5,62.4-23.5,76.5s12.5,65.5,23.5,76.5c7.3,7.3,32.1,23.5,39,23.5s18.1,0,25,0s31.7-16.2,39-23.5
			C766.7,1557.9,779.2,1506.4,779.2,1492.3z"/>
		<path id="manface_5039_" class="st0" d="M774.9,1475.6c0.7-0.2,1.3-0.6,1.9-1.3c-0.6-2.8-1.2-5.7-1.9-8.7c-0.2,0-0.4,0.1-0.6,0.1
			c-0.6,0-1.3,0-1.9-0.1c-1.5-5.4-3.1-10.8-4.8-15.9c0.9-0.6,1.8-1.3,2.5-2.1c-0.8-2.7-1.7-5.4-2.5-7.9c-1,0.6-2,1.1-3.1,1.4
			c-2.8-7-5.8-12.5-8.6-15.4c-10.3-10.3-52.6-13.1-80.4-8.4c-1.3-0.5-2.7-0.7-4.1-0.7c-3.6,0-6.8,1.5-9.1,3.9
			c-4.1,1.4-7.4,3.2-9.4,5.2c-0.7,0.7-1.3,1.5-2,2.4c-1.1-0.3-2.2-0.5-3.4-0.5c-0.6,0-1.3,0.1-1.9,0.2c-2.6,5.9-5.1,13.2-7.4,20.7
			c0.7,0.8,1.6,1.5,2.5,2.1c-0.2,0.7-0.5,1.4-0.7,2.2c-0.6-1.3-1.3-2.4-2.2-3.1c-2.2,7.5-4.1,15.3-5.6,22.3c0.6,0.7,1.3,1.2,2,1.5
			c-2.2,9.3-3.9,17.9-4.5,23.9c0.3,2.8,0.8,6.2,1.5,9.9c3.2-17.1,10-41.7,16.9-54.7c6.2-0.3,11.1-5.1,11.7-11.2
			c1.5-0.6,3.1-1.2,4.9-1.7c1.9,1.2,4.1,1.9,6.6,1.9c4.1,0,7.8-2,10.1-5.1c2-0.2,4-0.5,6.1-0.6c2.2,2.2,5.3,3.5,8.6,3.5
			c3.7,0,7-1.6,9.3-4.2c4,0,8,0.2,11.9,0.4c2.3,2.8,5.8,4.6,9.7,4.6c2.9,0,5.5-1,7.6-2.6c5.5,1,10.3,2.3,14.1,3.9
			c1,5.4,5.6,9.6,11.2,10.1c1.4,2.6,2.9,5.6,4.3,9c-0.5-0.7-1-1.5-1.4-2.4c-0.7,1.5-1,3.2-1,5c0,5.1,3.1,9.5,7.4,11.4
			c3.5,11,6.4,22.9,8.2,32.5c0.7-3.8,1.2-7.2,1.5-10.1C778.2,1491.6,776.8,1483.9,774.9,1475.6z"/>
		<g id="manface_5029_">
			<g id="manface_5036_">
				<g id="manface_5037_">
					<path id="manface_5038_" class="st0" d="M755.7,1415.9c8.4,8.4,17.7,40.6,21.6,61.5c1.2-6.4-10.6-80.5-21.6-91.5
						c-14.1-14.1-88.9-14.1-103,0c-11,11-22.8,85.1-21.6,91.5c3.9-20.9,13.2-53.1,21.6-61.5C666.8,1401.8,741.5,1401.8,755.7,1415.9
						z"/>
				</g>
			</g>
			<g id="manface_5034_">
				<path id="manface_5035_" class="st0" d="M652.7,1385.9c-11,11-22.8,85.1-21.6,91.5c3.9-20.9,13.2-53.1,21.6-61.5
					C666.8,1401.8,666.8,1371.8,652.7,1385.9z"/>
			</g>
			<g id="manface_5032_">
				<path id="manface_5033_" class="st0" d="M755.7,1415.9c8.4,8.4,17.7,40.6,21.6,61.5c1.2-6.4-10.6-80.5-21.6-91.5
					C741.5,1371.8,741.5,1401.8,755.7,1415.9z"/>
			</g>
			<g id="manface_5030_">
				<path id="manface_5031_" class="st0" d="M755.7,1415.9c8.4,8.4,17.7,40.6,21.6,61.5c1.2-6.4-10.6-80.5-21.6-91.5
					c-14.1-14.1-88.9-14.1-103,0c-11,11-22.8,85.1-21.6,91.5c3.9-20.9,13.2-53.1,21.6-61.5C666.8,1401.8,741.5,1401.8,755.7,1415.9z
					"/>
			</g>
		</g>
		<circle id="manface_5028_" class="st0" cx="704.4" cy="1580.1" r="6.2"/>
		<g id="manface_5025_">
			<path id="manface_5027_" class="st0" d="M735.2,1551.5c-3.5,0-6.2-2.8-6.2-6.2s12.5-3.5,12.5,0S738.6,1551.5,735.2,1551.5z"/>
			<path id="manface_5026_" class="st0" d="M735.2,1551.5c-3.5,0-6.2-2.8-6.2-6.2s12.5-3.5,12.5,0S738.6,1551.5,735.2,1551.5z"/>
		</g>
		<g id="manface_5022_">
			<circle id="manface_5024_" class="st0" cx="728.9" cy="1545.2" r="6.2"/>
			<circle id="manface_5023_" class="st0" cx="728.9" cy="1545.2" r="6.2"/>
		</g>
		<g id="manface_5019_">
			<path id="manface_5021_" class="st0" d="M716.9,1551.5c-6.9,0-12.5-5.6-12.5-12.5s25-6.9,25,0S723.8,1551.5,716.9,1551.5z"/>
			<path id="manface_5020_" class="st0" d="M716.9,1551.5c-6.9,0-12.5-5.6-12.5-12.5s25-6.9,25,0S723.8,1551.5,716.9,1551.5z"/>
		</g>
		<g id="manface_5016_">
			<path id="manface_5018_" class="st0" d="M673.7,1551.5c3.5,0,6.2-2.8,6.2-6.2s-12.5-3.5-12.5,0S670.2,1551.5,673.7,1551.5z"/>
			<path id="manface_5017_" class="st0" d="M673.7,1551.5c3.5,0,6.2-2.8,6.2-6.2s-12.5-3.5-12.5,0S670.2,1551.5,673.7,1551.5z"/>
		</g>
		<g id="manface_5013_">
			<circle id="manface_5015_" class="st0" cx="679.9" cy="1545.2" r="6.2"/>
			<circle id="manface_5014_" class="st0" cx="679.9" cy="1545.2" r="6.2"/>
		</g>
		<g id="manface_5010_">
			<path id="manface_5012_" class="st0" d="M691.9,1551.5c6.9,0,12.5-5.6,12.5-12.5s-25-6.9-25,0S685,1551.5,691.9,1551.5z"/>
			<path id="manface_5011_" class="st0" d="M691.9,1551.5c6.9,0,12.5-5.6,12.5-12.5s-25-6.9-25,0S685,1551.5,691.9,1551.5z"/>
		</g>
		<g id="manface_5001_">
			<path id="manface_5009_" class="st0" d="M710.4,1505.1c0-5,6.2-20,6.2-25c0-6.9-5.6-12.5-12.5-12.5s-12.5,5.6-12.5,12.5
				c0,5,6.3,20,6.3,25s-6.3,20-6.3,25c0,6.9,5.6,12.5,12.5,12.5s12.5-5.6,12.5-12.5C716.7,1525.1,710.4,1510.2,710.4,1505.1z"/>
			<path id="manface_5008_" class="st0" d="M710.4,1505.1c0-5,6.2-20,6.2-25c0-6.9-5.6-12.5-12.5-12.5s-12.5,5.6-12.5,12.5
				c0,5,6.3,20,6.3,25s-6.3,20-6.3,25c0,6.9,5.6,12.5,12.5,12.5s12.5-5.6,12.5-12.5C716.7,1525.1,710.4,1510.2,710.4,1505.1z"/>
			<path id="manface_5007_" class="st0" d="M691.7,1537.4c0-6.9,5.6-12.5,12.5-12.5s12.5,5.6,12.5,12.5S691.7,1544.3,691.7,1537.4z"
				/>
			<circle id="manface_5006_" class="st0" cx="691.7" cy="1536.4" r="6.2"/>
			<circle id="manface_5005_" class="st0" cx="716.7" cy="1536.4" r="6.2"/>
			<circle id="manface_5004_" class="st0" cx="691.7" cy="1536.4" r="6.2"/>
			<circle id="manface_5003_" class="st0" cx="716.7" cy="1536.4" r="6.2"/>
			<path id="manface_5002_" class="st0" d="M691.7,1537.4c0-6.9,5.6-12.5,12.5-12.5s12.5,5.6,12.5,12.5S691.7,1544.3,691.7,1537.4z"
				/>
		</g>
		<circle id="manface_5000_" class="st0" cx="741.7" cy="1512.6" r="25"/>
		<circle id="manface_4999_" class="st0" cx="666.7" cy="1512.6" r="25"/>
		<g id="manface_4985_">
			<ellipse id="manface_4998_" class="st0" cx="741.7" cy="1512.6" rx="12.5" ry="25"/>
			<ellipse id="manface_4997_" class="st0" cx="741.7" cy="1502.6" rx="12.5" ry="25"/>
			<ellipse id="manface_4996_" class="st0" cx="666.7" cy="1512.6" rx="12.5" ry="25"/>
			<ellipse id="manface_4995_" class="st0" cx="666.7" cy="1502.6" rx="12.5" ry="25"/>
			<g id="manface_4986_">
				<g id="manface_4991_">
					<ellipse id="manface_4994_" class="st0" cx="666.7" cy="1492.6" rx="12.5" ry="25"/>
					<ellipse id="manface_4993_" class="st0" cx="666.7" cy="1492.6" rx="12.5" ry="25"/>
					<path id="manface_4992_" class="st0" d="M666.7,1467.6c-6.9,0-12.5,11.2-12.5,25c0,1.7,0.1,3.4,0.3,5c1.2-11.4,6.2-20,12.2-20
						s11.1,8.6,12.2,20c0.2-1.6,0.3-3.3,0.3-5C679.2,1478.8,673.6,1467.6,666.7,1467.6z"/>
				</g>
				<g id="manface_4987_">
					<ellipse id="manface_4990_" class="st0" cx="741.7" cy="1492.6" rx="12.5" ry="25"/>
					<ellipse id="manface_4989_" class="st0" cx="741.7" cy="1492.6" rx="12.5" ry="25"/>
					<path id="manface_4988_" class="st0" d="M741.7,1477.6c6,0,11.1,8.6,12.2,20c0.2-1.6,0.3-3.3,0.3-5c0-13.8-5.6-25-12.5-25
						s-12.5,11.2-12.5,25c0,1.7,0.1,3.4,0.3,5C730.6,1486.2,735.6,1477.6,741.7,1477.6z"/>
				</g>
			</g>
		</g>
		<path id="manface_4984_" class="st0" d="M629.2,1492.5c0,14.1,12.5,65.5,23.5,76.5C660,1576.4,629.2,1478.4,629.2,1492.5z"/>
		<path id="manface_4983_" class="st0" d="M779.2,1492.5c0-14.1-30.8,83.8-23.5,76.5C766.7,1558.1,779.2,1506.6,779.2,1492.5z"/>
		<g id="manface_4969_">
			<g id="manface_4980_">
				<circle id="manface_4982_" class="st0" cx="647.9" cy="1475.8" r="6.2"/>
				<circle id="manface_4981_" class="st0" cx="647.9" cy="1475.8" r="6.2"/>
			</g>
			<g id="manface_4977_">
				<path id="manface_4979_" class="st0" d="M654.2,1475.8c3.5,0,6.2-2.8,6.2-6.2s-12.5-3.5-12.5,0S650.7,1475.8,654.2,1475.8z"/>
				<path id="manface_4978_" class="st0" d="M654.2,1475.8c3.5,0,6.2-2.8,6.2-6.2s-12.5-3.5-12.5,0S650.7,1475.8,654.2,1475.8z"/>
			</g>
			<g id="manface_4974_">
				<circle id="manface_4976_" class="st0" cx="660.4" cy="1469.6" r="6.2"/>
				<circle id="manface_4975_" class="st0" cx="660.4" cy="1469.6" r="6.2"/>
			</g>
			<g id="manface_4970_">
				<g id="manface_4972_">
					<path id="manface_4973_" class="st0" d="M672.9,1475.8c6.9,0,12.5-5.6,12.5-12.5s-25-6.9-25,0S666,1475.8,672.9,1475.8z"/>
				</g>
				<path id="manface_4971_" class="st0" d="M672.9,1475.8c6.9,0,12.5-5.6,12.5-12.5s-25-6.9-25,0S666,1475.8,672.9,1475.8z"/>
			</g>
		</g>
		<g id="manface_4955_">
			<g id="manface_4966_">
				<circle id="manface_4968_" class="st0" cx="760.4" cy="1475.8" r="6.2"/>
				<circle id="manface_4967_" class="st0" cx="760.4" cy="1475.8" r="6.2"/>
			</g>
			<g id="manface_4963_">
				<path id="manface_4965_" class="st0" d="M754.2,1475.8c-3.5,0-6.2-2.8-6.2-6.2s12.5-3.5,12.5,0S757.6,1475.8,754.2,1475.8z"/>
				<path id="manface_4964_" class="st0" d="M754.2,1475.8c-3.5,0-6.2-2.8-6.2-6.2s12.5-3.5,12.5,0S757.6,1475.8,754.2,1475.8z"/>
			</g>
			<g id="manface_4960_">
				<circle id="manface_4962_" class="st0" cx="747.9" cy="1469.6" r="6.2"/>
				<circle id="manface_4961_" class="st0" cx="747.9" cy="1469.6" r="6.2"/>
			</g>
			<g id="manface_4956_">
				<g id="manface_4958_">
					<path id="manface_4959_" class="st0" d="M735.4,1475.8c-6.9,0-12.5-5.6-12.5-12.5s25-6.9,25,0S742.3,1475.8,735.4,1475.8z"/>
				</g>
				<path id="manface_4957_" class="st0" d="M735.4,1475.8c-6.9,0-12.5-5.6-12.5-12.5s25-6.9,25,0S742.3,1475.8,735.4,1475.8z"/>
			</g>
		</g>
		<g id="manface_4953_">
			<path id="manface_4954_" class="st0" d="M755.7,1435.8c9.1,9.1,19.3,46.2,22.5,66.5c0.6-4.2,1-7.6,1-10
				c0-14.1-12.5-65.5-23.5-76.5c-14.1-14.1-88.9-14.1-103,0c-11,11-23.5,62.4-23.5,76.5c0,2.4,0.4,5.8,1,10
				c3.2-20.4,13.4-57.4,22.5-66.5C666.8,1421.7,741.5,1421.7,755.7,1435.8z"/>
		</g>
		<circle id="manface_4952_" class="st0" cx="696" cy="1416.9" r="12.5"/>
		<circle id="manface_4951_" class="st0" cx="671.2" cy="1419.2" r="12.5"/>
		<circle id="manface_4950_" class="st0" cx="647.2" cy="1430.2" r="12.5"/>
		<ellipse id="manface_4949_" class="st0" cx="635.2" cy="1451.3" rx="6.2" ry="12.5"/>
		<circle id="manface_4948_" class="st0" cx="726.9" cy="1417.7" r="12.5"/>
		<circle id="manface_4947_" class="st0" cx="760.9" cy="1429.2" r="12.5"/>
		<path id="manface_4946_" class="st0" d="M774.2,1465.8c-6.9,0-12.5-5.6-12.5-12.5s5.6-12.5,12.5-12.5S781.1,1465.8,774.2,1465.8z"
			/>
		<g id="manface_4944_">
			<path id="manface_4945_" class="st0" d="M696,1419.4c-5.1,0-9.5-3.1-11.5-7.5c-0.7,1.5-1,3.2-1,5c0,6.9,5.6,12.5,12.5,12.5
				s12.5-5.6,12.5-12.5c0-1.8-0.4-3.5-1-5C705.5,1416.3,701.1,1419.4,696,1419.4z"/>
		</g>
		<g id="manface_4942_">
			<path id="manface_4943_" class="st0" d="M726.9,1420.2c-5.1,0-9.5-3.1-11.5-7.5c-0.7,1.5-1,3.2-1,5c0,6.9,5.6,12.5,12.5,12.5
				s12.5-5.6,12.5-12.5c0-1.8-0.4-3.5-1-5C736.4,1417.1,732,1420.2,726.9,1420.2z"/>
		</g>
		<g id="manface_4940_">
			<path id="manface_4941_" class="st0" d="M760.9,1431.7c-5.1,0-9.5-3.1-11.5-7.5c-0.7,1.5-1,3.2-1,5c0,6.9,5.6,12.5,12.5,12.5
				s12.5-5.6,12.5-12.5c0-1.8-0.4-3.5-1-5C770.4,1428.6,766,1431.7,760.9,1431.7z"/>
		</g>
		<g id="manface_4938_">
			<path id="manface_4939_" class="st0" d="M671.2,1421.7c-5.1,0-9.5-3.1-11.5-7.5c-0.7,1.5-1,3.2-1,5c0,6.9,5.6,12.5,12.5,12.5
				s12.5-5.6,12.5-12.5c0-1.8-0.4-3.5-1-5C680.7,1418.6,676.3,1421.7,671.2,1421.7z"/>
		</g>
		<g id="manface_4936_">
			<path id="manface_4937_" class="st0" d="M647.2,1432.7c-5.1,0-9.5-3.1-11.5-7.5c-0.7,1.5-1,3.2-1,5c0,6.9,5.6,12.5,12.5,12.5
				s12.5-5.6,12.5-12.5c0-1.8-0.4-3.5-1-5C656.8,1429.6,652.4,1432.7,647.2,1432.7z"/>
		</g>
		<g id="manface_4934_">
			<path id="manface_4935_" class="st0" d="M635.2,1453.8c-2.6,0-4.8-3.1-5.7-7.5c-0.3,1.5-0.5,3.2-0.5,5c0,6.9,2.8,12.5,6.2,12.5
				s6.2-5.6,6.2-12.5c0-1.8-0.2-3.5-0.5-5C639.9,1450.7,637.7,1453.8,635.2,1453.8z"/>
		</g>
		<g id="manface_4932_">
			<path id="manface_4933_" class="st0" d="M774.2,1455.8c-5.1,0-9.5-3.1-11.5-7.5c-0.7,1.5-1,3.2-1,5c0,6.9,5.6,12.5,12.5,12.5
				c4.4,0,6-10.1,4.8-17.5C778.3,1452.5,776.7,1455.8,774.2,1455.8z"/>
		</g>
		<g id="manface_4928_">
			<path id="manface_4931_" class="st0" d="M779.2,1492.3c0-14.1-12.5-65.5-23.5-76.5c-14.1-14.1-88.9-14.1-103,0
				c-11,11-23.5,62.4-23.5,76.5S779.2,1506.4,779.2,1492.3z"/>
			<path id="manface_4930_" class="st0" d="M652.7,1415.8c-11,11-23.5,62.4-23.5,76.5s12.5,65.5,23.5,76.5
				C660,1576.2,666.8,1401.7,652.7,1415.8z"/>
			<path id="manface_4929_" class="st0" d="M779.2,1492.3c0-14.1-12.5-65.5-23.5-76.5c-14.1-14.1-7.3,160.4,0,153
				C766.7,1557.9,779.2,1506.4,779.2,1492.3z"/>
		</g>
		<g id="manface_4924_">
			<path id="manface_4927_" class="st0" d="M704.2,1395.2c-21.7,0-75,5.6-75,12.5s5.6,12.5,12.5,12.5c4.3,0,40.8,0,62.5,0
				s58.2,0,62.5,0c6.9,0,12.5-5.6,12.5-12.5S725.9,1395.2,704.2,1395.2z"/>
			<path id="manface_4926_" class="st0" d="M766.7,1420.2c6.9,0,12.5-5.6,12.5-12.5S762.3,1420.2,766.7,1420.2z"/>
			<path id="manface_4925_" class="st0" d="M704.2,1395.2c-21.7,0-75,5.6-75,12.5s5.6,12.5,12.5,12.5c4.3,0,40.8,0,62.5,0
				s58.2,0,62.5,0c6.9,0,12.5-5.6,12.5-12.5S725.9,1395.2,704.2,1395.2z"/>
		</g>
		<g id="manface_4922_">
			<path id="manface_4923_" class="st0" d="M710.4,1551.5c-0.4,3.1-3,5.4-6.2,5.4s-5.8-2.4-6.2-5.4c-5.6,1.1-12.6,3.1-12.6,5.4
				c0,3.5,2.8,6.2,6.2,6.2c1.7,0,9.3,0,12.5,0s10.8,0,12.5,0c3.5,0,6.2-2.8,6.2-6.2C722.9,1554.6,715.9,1552.5,710.4,1551.5z"/>
		</g>
		<g id="manface_4920_">
			<path id="manface_4921_" class="st0" d="M641.7,1420.2c-6.9,0-12.5-5.6-12.5-12.5S646,1420.2,641.7,1420.2z"/>
		</g>
		<path id="manface_4919_" class="st0" d="M652.6,1568.9c7.3,7.3,32.1,23.5,39,23.5s18.1,0,25,0s31.7-16.2,39-23.5
			C766.7,1557.9,641.7,1557.9,652.6,1568.9z"/>
	</g>
	<path id="manface_4917_" class="st1" d="M666.7,1517.6c-6.9,0-12.5-11.2-12.5-25S673.6,1517.6,666.7,1517.6z"/>
</g>
<path id="manface_4915_" class="st1" d="M741.7,1517.6c-6.9,0-12.5-11.2-12.5-25S748.6,1517.6,741.7,1517.6z"/>
</svg>
