<?xml version="1.0" encoding="utf-8"?>
<!-- Generator: Adobe Illustrator 19.0.0, SVG Export Plug-In . SVG Version: 6.00 Build 0)  -->
<svg version="1.1" id="Layer_1" xmlns="http://www.w3.org/2000/svg" xmlns:xlink="http://www.w3.org/1999/xlink" x="0px" y="0px"
	 viewBox="599.2 1375.3 205 217.1" style="enable-background:new 599.2 1375.3 205 217.1;" xml:space="preserve">
<style type="text/css">
	.st0{opacity:0.25;}
	.st1{fill:url(#manface_1_);}
	.st2{fill:url(#manface_2_);}
	.st3{fill:#FEFBDF;}
	.st4{opacity:0.25;fill:url(#manface_3_);}
	.st5{opacity:0.25;fill:url(#manface_4_);}
	.st6{fill:url(#manface_5_);}
	.st7{fill:url(#manface_6_);}
	.st8{fill:url(#manface_7_);}
	.st9{fill:url(#manface_8_);}
	.st10{fill:url(#manface_9_);}
	.st11{fill:url(#manface_10_);}
	.st12{fill:#A7B7AA;}
	.st13{fill:url(#manface_11_);}
	.st14{fill:url(#manface_12_);}
	.st15{fill:url(#manface_13_);}
	.st16{fill:#9FADA1;}
	.st17{fill:url(#manface_14_);}
	.st18{fill:url(#manface_15_);}
	.st19{fill:url(#manface_16_);}
	.st20{fill:url(#manface_17_);}
	.st21{fill:url(#manface_18_);}
	.st22{fill:url(#manface_19_);}
	.st23{fill:url(#manface_20_);}
	.st24{fill:url(#manface_21_);}
	.st25{fill:url(#manface_22_);}
	.st26{fill:url(#manface_23_);}
	.st27{opacity:0.25;fill:#FFFFFF;enable-background:new    ;}
</style>
<g id="manface_5047_" class="st0">
	
		<linearGradient id="manface_1_" gradientUnits="userSpaceOnUse" x1="599.2" y1="-713.3263" x2="636.7" y2="-713.3263" gradientTransform="matrix(1 0 0 -1 0 794.0001)">
		<stop  offset="0" style="stop-color:#233044;stop-opacity:0"/>
		<stop  offset="1" style="stop-color:#233044;stop-opacity:0.1"/>
	</linearGradient>
	<path id="manface_5049_" class="st1" d="M604.7,1482.4c-6.2,6.2-7.1,15.6-2.9,22.8c-1.7,2.8-2.6,6.1-2.6,9.5
		c0,10.4,8.4,18.8,18.8,18.8s18.8-8.4,18.8-18.8c0-4.9-1.9-9.3-4.9-12.6C628,1491.8,610.4,1476.7,604.7,1482.4z"/>
	
		<linearGradient id="manface_2_" gradientUnits="userSpaceOnUse" x1="761.6661" y1="-713.4572" x2="799.1661" y2="-713.4572" gradientTransform="matrix(1 0 0 -1 0 794.0001)">
		<stop  offset="0" style="stop-color:#233044;stop-opacity:0"/>
		<stop  offset="1" style="stop-color:#233044;stop-opacity:0.1"/>
	</linearGradient>
	<path id="manface_5048_" class="st2" d="M793.7,1482.7c-5.7-5.7-22.7,8.8-26.9,19.1c-3.2,3.4-5.2,7.9-5.2,12.9
		c0,10.4,8.4,18.8,18.8,18.8s18.8-8.4,18.8-18.8c0-3.4-0.9-6.6-2.5-9.4C800.8,1498.2,799.8,1488.9,793.7,1482.7z"/>
</g>
<g id="manface_5044_" class="st0">
	<path id="manface_5046_" class="st3" d="M609.7,1477.4c-6.2,6.2-7.1,15.6-2.9,22.8c-1.7,2.8-2.6,6.1-2.6,9.5
		c0,10.4,8.4,18.8,18.8,18.8s18.8-8.4,18.8-18.8c0-4.9-1.9-9.3-4.9-12.6C633,1486.8,615.4,1471.7,609.7,1477.4z"/>
	<path id="manface_5045_" class="st3" d="M798.7,1477.7c-5.7-5.7-22.7,8.8-26.9,19.1c-3.2,3.4-5.2,7.9-5.2,12.9
		c0,10.4,8.4,18.8,18.8,18.8s18.8-8.4,18.8-18.8c0-3.4-0.9-6.6-2.5-9.4C805.8,1493.2,804.8,1483.9,798.7,1477.7z"/>
</g>
<linearGradient id="manface_3_" gradientUnits="userSpaceOnUse" x1="604.2" y1="-708.3263" x2="641.7" y2="-708.3263" gradientTransform="matrix(1 0 0 -1 0 794.0001)">
	<stop  offset="0" style="stop-color:#233044;stop-opacity:0"/>
	<stop  offset="1" style="stop-color:#233044;stop-opacity:5.000000e-02"/>
</linearGradient>
<path id="manface_5043_" class="st4" d="M609.7,1477.4c-6.2,6.2-7.1,15.6-2.9,22.8c-1.7,2.8-2.6,6.1-2.6,9.5
	c0,10.4,8.4,18.8,18.8,18.8s18.8-8.4,18.8-18.8c0-4.9-1.9-9.3-4.9-12.6C633,1486.8,615.4,1471.7,609.7,1477.4z"/>
<linearGradient id="manface_4_" gradientUnits="userSpaceOnUse" x1="804.2" y1="-708.4572" x2="766.7" y2="-708.4572" gradientTransform="matrix(1 0 0 -1 0 794.0001)">
	<stop  offset="0" style="stop-color:#233044;stop-opacity:0"/>
	<stop  offset="1" style="stop-color:#233044;stop-opacity:5.000000e-02"/>
</linearGradient>
<path id="manface_5042_" class="st5" d="M798.7,1477.7c-5.7-5.7-22.7,8.8-26.9,19.1c-3.2,3.4-5.2,7.9-5.2,12.9
	c0,10.4,8.4,18.8,18.8,18.8s18.8-8.4,18.8-18.8c0-3.4-0.9-6.6-2.5-9.4C805.8,1493.2,804.8,1483.9,798.7,1477.7z"/>
<g id="manface_4918_">
	
		<linearGradient id="manface_5_" gradientUnits="userSpaceOnUse" x1="704.3" y1="-621.0909" x2="704.3" y2="-718.2179" gradientTransform="matrix(1 0 0 -1 0 794.0001)">
		<stop  offset="0" style="stop-color:#233044;stop-opacity:0"/>
		<stop  offset="1" style="stop-color:#233044;stop-opacity:0.1"/>
	</linearGradient>
	<path id="manface_5039_" class="st6" d="M774.9,1475.6c0.7-0.2,1.3-0.6,1.9-1.3c-0.6-2.8-1.2-5.7-1.9-8.7c-0.2,0-0.4,0.1-0.6,0.1
		c-0.6,0-1.3,0-1.9-0.1c-1.5-5.4-3.1-10.8-4.8-15.9c0.9-0.6,1.8-1.3,2.5-2.1c-0.8-2.7-1.7-5.4-2.5-7.9c-1,0.6-2,1.1-3.1,1.4
		c-2.8-7-5.8-12.5-8.6-15.4c-10.3-10.3-52.6-13.1-80.4-8.4c-1.3-0.5-2.7-0.7-4.1-0.7c-3.6,0-6.8,1.5-9.1,3.9
		c-4.1,1.4-7.4,3.2-9.4,5.2c-0.7,0.7-1.3,1.5-2,2.4c-1.1-0.3-2.2-0.5-3.4-0.5c-0.6,0-1.3,0.1-1.9,0.2c-2.6,5.9-5.1,13.2-7.4,20.7
		c0.7,0.8,1.6,1.5,2.5,2.1c-0.2,0.7-0.5,1.4-0.7,2.2c-0.6-1.3-1.3-2.4-2.2-3.1c-2.2,7.5-4.1,15.3-5.6,22.3c0.6,0.7,1.3,1.2,2,1.5
		c-2.2,9.3-3.9,17.9-4.5,23.9c0.3,2.8,0.8,6.2,1.5,9.9c3.2-17.1,10-41.7,16.9-54.7c6.2-0.3,11.1-5.1,11.7-11.2
		c1.5-0.6,3.1-1.2,4.9-1.7c1.9,1.2,4.1,1.9,6.6,1.9c4.1,0,7.8-2,10.1-5.1c2-0.2,4-0.5,6.1-0.6c2.2,2.2,5.3,3.5,8.6,3.5
		c3.7,0,7-1.6,9.3-4.2c4,0,8,0.2,11.9,0.4c2.3,2.8,5.8,4.6,9.7,4.6c2.9,0,5.5-1,7.6-2.6c5.5,1,10.3,2.3,14.1,3.9
		c1,5.4,5.6,9.6,11.2,10.1c1.4,2.6,2.9,5.6,4.3,9c-0.5-0.7-1-1.5-1.4-2.4c-0.7,1.5-1,3.2-1,5c0,5.1,3.1,9.5,7.4,11.4
		c3.5,11,6.4,22.9,8.2,32.5c0.7-3.8,1.2-7.2,1.5-10.1C778.2,1491.6,776.8,1483.9,774.9,1475.6z"/>
	
		<linearGradient id="manface_6_" gradientUnits="userSpaceOnUse" x1="704.4" y1="-779.8666" x2="704.4" y2="-792.3666" gradientTransform="matrix(1 0 0 -1 0 794.0001)">
		<stop  offset="0" style="stop-color:#233044;stop-opacity:0"/>
		<stop  offset="1" style="stop-color:#233044;stop-opacity:5.000000e-02"/>
	</linearGradient>
	<circle id="manface_5028_" class="st7" cx="704.4" cy="1580.1" r="6.2"/>
	
		<linearGradient id="manface_7_" gradientUnits="userSpaceOnUse" x1="766.7" y1="-718.6" x2="716.7" y2="-718.6" gradientTransform="matrix(1 0 0 -1 0 794.0001)">
		<stop  offset="0" style="stop-color:#233044;stop-opacity:0"/>
		<stop  offset="1" style="stop-color:#233044;stop-opacity:5.000000e-02"/>
	</linearGradient>
	<circle id="manface_5000_" class="st8" cx="741.7" cy="1512.6" r="25"/>
	
		<linearGradient id="manface_8_" gradientUnits="userSpaceOnUse" x1="641.7" y1="-718.6" x2="691.7" y2="-718.6" gradientTransform="matrix(1 0 0 -1 0 794.0001)">
		<stop  offset="0" style="stop-color:#233044;stop-opacity:0"/>
		<stop  offset="1" style="stop-color:#233044;stop-opacity:5.000000e-02"/>
	</linearGradient>
	<circle id="manface_4999_" class="st9" cx="666.7" cy="1512.6" r="25"/>
	
		<linearGradient id="manface_9_" gradientUnits="userSpaceOnUse" x1="641.5096" y1="-697.1101" x2="641.5096" y2="-775.3996" gradientTransform="matrix(1 0 0 -1 0 794.0001)">
		<stop  offset="0" style="stop-color:#233044;stop-opacity:0"/>
		<stop  offset="1" style="stop-color:#233044;stop-opacity:5.000000e-02"/>
	</linearGradient>
	<path id="manface_4984_" class="st10" d="M629.2,1492.5c0,14.1,12.5,65.5,23.5,76.5C660,1576.4,629.2,1478.4,629.2,1492.5z"/>
	
		<linearGradient id="manface_10_" gradientUnits="userSpaceOnUse" x1="766.8904" y1="-697.1088" x2="766.8904" y2="-775.3895" gradientTransform="matrix(1 0 0 -1 0 794.0001)">
		<stop  offset="0" style="stop-color:#233044;stop-opacity:0"/>
		<stop  offset="1" style="stop-color:#233044;stop-opacity:5.000000e-02"/>
	</linearGradient>
	<path id="manface_4983_" class="st11" d="M779.2,1492.5c0-14.1-30.8,83.8-23.5,76.5C766.7,1558.1,779.2,1506.6,779.2,1492.5z"/>
	<g id="manface_4969_">
		<g id="manface_4980_">
			<circle id="manface_4982_" class="st12" cx="647.9" cy="1475.8" r="6.2"/>
			
				<linearGradient id="manface_11_" gradientUnits="userSpaceOnUse" x1="5326.7876" y1="-688.0804" x2="5326.7876" y2="-675.5804" gradientTransform="matrix(-1 0 0 -1 5974.6875 794.0001)">
				<stop  offset="0" style="stop-color:#233044;stop-opacity:0"/>
				<stop  offset="1" style="stop-color:#233044;stop-opacity:0.1"/>
			</linearGradient>
			<circle id="manface_4981_" class="st13" cx="647.9" cy="1475.8" r="6.2"/>
		</g>
		<g id="manface_4977_">
			<path id="manface_4979_" class="st12" d="M654.2,1475.8c3.5,0,6.2-2.8,6.2-6.2s-12.5-3.5-12.5,0S650.7,1475.8,654.2,1475.8z"/>
			
				<linearGradient id="manface_12_" gradientUnits="userSpaceOnUse" x1="5320.5376" y1="-681.8304" x2="5320.5376" y2="-672.9916" gradientTransform="matrix(-1 0 0 -1 5974.6875 794.0001)">
				<stop  offset="0" style="stop-color:#233044;stop-opacity:0"/>
				<stop  offset="1" style="stop-color:#233044;stop-opacity:0.1"/>
			</linearGradient>
			<path id="manface_4978_" class="st14" d="M654.2,1475.8c3.5,0,6.2-2.8,6.2-6.2s-12.5-3.5-12.5,0S650.7,1475.8,654.2,1475.8z"/>
		</g>
		<g id="manface_4974_">
			<circle id="manface_4976_" class="st12" cx="660.4" cy="1469.6" r="6.2"/>
			
				<linearGradient id="manface_13_" gradientUnits="userSpaceOnUse" x1="5314.2876" y1="-681.8304" x2="5314.2876" y2="-669.3304" gradientTransform="matrix(-1 0 0 -1 5974.6875 794.0001)">
				<stop  offset="0" style="stop-color:#233044;stop-opacity:0"/>
				<stop  offset="1" style="stop-color:#233044;stop-opacity:0.1"/>
			</linearGradient>
			<circle id="manface_4975_" class="st15" cx="660.4" cy="1469.6" r="6.2"/>
		</g>
		<g id="manface_4970_">
			<g id="manface_4972_">
				<path id="manface_4973_" class="st16" d="M672.9,1475.8c6.9,0,12.5-5.6,12.5-12.5s-25-6.9-25,0S666,1475.8,672.9,1475.8z"/>
			</g>
			
				<linearGradient id="manface_14_" gradientUnits="userSpaceOnUse" x1="5301.7876" y1="-681.8304" x2="5301.7876" y2="-664.1554" gradientTransform="matrix(-1 0 0 -1 5974.6875 794.0001)">
				<stop  offset="0" style="stop-color:#233044;stop-opacity:0"/>
				<stop  offset="1" style="stop-color:#233044;stop-opacity:0.1"/>
			</linearGradient>
			<path id="manface_4971_" class="st17" d="M672.9,1475.8c6.9,0,12.5-5.6,12.5-12.5s-25-6.9-25,0S666,1475.8,672.9,1475.8z"/>
		</g>
	</g>
	<g id="manface_4955_">
		<g id="manface_4966_">
			<circle id="manface_4968_" class="st12" cx="760.4" cy="1475.8" r="6.2"/>
			
				<linearGradient id="manface_15_" gradientUnits="userSpaceOnUse" x1="450.8992" y1="-688.0804" x2="450.8992" y2="-675.5804" gradientTransform="matrix(1 0 0 -1 309.5008 794.0001)">
				<stop  offset="0" style="stop-color:#233044;stop-opacity:0"/>
				<stop  offset="1" style="stop-color:#233044;stop-opacity:0.1"/>
			</linearGradient>
			<circle id="manface_4967_" class="st18" cx="760.4" cy="1475.8" r="6.2"/>
		</g>
		<g id="manface_4963_">
			<path id="manface_4965_" class="st12" d="M754.2,1475.8c-3.5,0-6.2-2.8-6.2-6.2s12.5-3.5,12.5,0S757.6,1475.8,754.2,1475.8z"/>
			
				<linearGradient id="manface_16_" gradientUnits="userSpaceOnUse" x1="444.7492" y1="-681.8304" x2="444.7492" y2="-672.9916" gradientTransform="matrix(1 0 0 -1 309.5008 794.0001)">
				<stop  offset="0" style="stop-color:#233044;stop-opacity:0"/>
				<stop  offset="1" style="stop-color:#233044;stop-opacity:0.1"/>
			</linearGradient>
			<path id="manface_4964_" class="st19" d="M754.2,1475.8c-3.5,0-6.2-2.8-6.2-6.2s12.5-3.5,12.5,0S757.6,1475.8,754.2,1475.8z"/>
		</g>
		<g id="manface_4960_">
			<circle id="manface_4962_" class="st12" cx="747.9" cy="1469.6" r="6.2"/>
			
				<linearGradient id="manface_17_" gradientUnits="userSpaceOnUse" x1="438.3992" y1="-681.8304" x2="438.3992" y2="-669.3304" gradientTransform="matrix(1 0 0 -1 309.5008 794.0001)">
				<stop  offset="0" style="stop-color:#233044;stop-opacity:0"/>
				<stop  offset="1" style="stop-color:#233044;stop-opacity:0.1"/>
			</linearGradient>
			<circle id="manface_4961_" class="st20" cx="747.9" cy="1469.6" r="6.2"/>
		</g>
		<g id="manface_4956_">
			<g id="manface_4958_">
				<path id="manface_4959_" class="st16" d="M735.4,1475.8c-6.9,0-12.5-5.6-12.5-12.5s25-6.9,25,0S742.3,1475.8,735.4,1475.8z"/>
			</g>
			
				<linearGradient id="manface_18_" gradientUnits="userSpaceOnUse" x1="425.8992" y1="-681.8304" x2="425.8992" y2="-664.1554" gradientTransform="matrix(1 0 0 -1 309.5008 794.0001)">
				<stop  offset="0" style="stop-color:#233044;stop-opacity:0"/>
				<stop  offset="1" style="stop-color:#233044;stop-opacity:0.1"/>
			</linearGradient>
			<path id="manface_4957_" class="st21" d="M735.4,1475.8c-6.9,0-12.5-5.6-12.5-12.5s25-6.9,25,0S742.3,1475.8,735.4,1475.8z"/>
		</g>
	</g>
	<g id="manface_4928_">
		
			<linearGradient id="manface_19_" gradientUnits="userSpaceOnUse" x1="704.2" y1="-708.875" x2="704.2" y2="-611.225" gradientTransform="matrix(1 0 0 -1 0 794.0001)">
			<stop  offset="0" style="stop-color:#233044;stop-opacity:0"/>
			<stop  offset="1" style="stop-color:#233044;stop-opacity:5.000000e-02"/>
		</linearGradient>
		<path id="manface_4931_" class="st22" d="M779.2,1492.3c0-14.1-12.5-65.5-23.5-76.5c-14.1-14.1-88.9-14.1-103,0
			c-11,11-23.5,62.4-23.5,76.5S779.2,1506.4,779.2,1492.3z"/>
		
			<linearGradient id="manface_20_" gradientUnits="userSpaceOnUse" x1="660.9183" y1="-698.009" x2="629.2" y2="-698.009" gradientTransform="matrix(1 0 0 -1 0 794.0001)">
			<stop  offset="0" style="stop-color:#233044;stop-opacity:0"/>
			<stop  offset="1" style="stop-color:#233044;stop-opacity:5.000000e-02"/>
		</linearGradient>
		<path id="manface_4930_" class="st23" d="M652.7,1415.8c-11,11-23.5,62.4-23.5,76.5s12.5,65.5,23.5,76.5
			C660,1576.2,666.8,1401.7,652.7,1415.8z"/>
		
			<linearGradient id="manface_21_" gradientUnits="userSpaceOnUse" x1="747.4377" y1="-698.009" x2="779.156" y2="-698.009" gradientTransform="matrix(1 0 0 -1 0 794.0001)">
			<stop  offset="0" style="stop-color:#233044;stop-opacity:0"/>
			<stop  offset="1" style="stop-color:#233044;stop-opacity:5.000000e-02"/>
		</linearGradient>
		<path id="manface_4929_" class="st24" d="M779.2,1492.3c0-14.1-12.5-65.5-23.5-76.5c-14.1-14.1-7.3,160.4,0,153
			C766.7,1557.9,779.2,1506.4,779.2,1492.3z"/>
	</g>
	<g id="manface_4922_">
		
			<linearGradient id="manface_22_" gradientUnits="userSpaceOnUse" x1="704.1006" y1="-769.1182" x2="704.1006" y2="-756.6182" gradientTransform="matrix(1 0 0 -1 0 794.0001)">
			<stop  offset="0" style="stop-color:#FEFBDF;stop-opacity:0"/>
			<stop  offset="1" style="stop-color:#E8E7D1"/>
		</linearGradient>
		<path id="manface_4923_" class="st25" d="M710.4,1551.5c-0.4,3.1-3,5.4-6.2,5.4s-5.8-2.4-6.2-5.4c-5.6,1.1-12.6,3.1-12.6,5.4
			c0,3.5,2.8,6.2,6.2,6.2c1.7,0,9.3,0,12.5,0s10.8,0,12.5,0c3.5,0,6.2-2.8,6.2-6.2C722.9,1554.6,715.9,1552.5,710.4,1551.5z"/>
	</g>
	
		<linearGradient id="manface_23_" gradientUnits="userSpaceOnUse" x1="704.1121" y1="-766.65" x2="704.1121" y2="-798.3651" gradientTransform="matrix(1 0 0 -1 0 794.0001)">
		<stop  offset="0" style="stop-color:#233044;stop-opacity:0"/>
		<stop  offset="1" style="stop-color:#233044;stop-opacity:5.000000e-02"/>
	</linearGradient>
	<path id="manface_4919_" class="st26" d="M652.6,1568.9c7.3,7.3,32.1,23.5,39,23.5s18.1,0,25,0s31.7-16.2,39-23.5
		C766.7,1557.9,641.7,1557.9,652.6,1568.9z"/>
</g>
<path id="manface_4917_" class="st27" d="M666.7,1517.6c-6.9,0-12.5-11.2-12.5-25S673.6,1517.6,666.7,1517.6z"/>
<path id="manface_4915_" class="st27" d="M741.7,1517.6c-6.9,0-12.5-11.2-12.5-25S748.6,1517.6,741.7,1517.6z"/>
</svg>
