<?xml version="1.0" encoding="utf-8"?>
<!-- Generator: Adobe Illustrator 19.0.0, SVG Export Plug-In . SVG Version: 6.00 Build 0)  -->
<svg version="1.1" id="Layer_1" xmlns="http://www.w3.org/2000/svg" xmlns:xlink="http://www.w3.org/1999/xlink" x="0px" y="0px"
	 viewBox="0 0 30.2 30.2" style="enable-background:new 0 0 30.2 30.2;" xml:space="preserve">
<path id="XMLID_27_" style="fill:#FBAB2B;" d="M1.8,10.7c0.8,0.8,6.4,6.4,8.8,8.8c2.4,2.4,8,8,8.8,8.8c2.4,2.4,6.4,2.4,8.8,0
	s2.4-6.4,0-8.8c-0.8-0.8-6.4-6.4-8.8-8.8c-2.4-2.4-8-8-8.8-8.8c-2.4-2.4-6.4-2.4-8.8,0S-0.6,8.2,1.8,10.7z"/>
<path id="XMLID_28_" style="fill:#FBAB2B;" d="M10.7,28.3c0.8-0.8,6.4-6.4,8.8-8.8c2.4-2.4,8-8,8.8-8.8c2.4-2.4,2.4-6.4,0-8.8
	s-6.4-2.4-8.8,0c-0.8,0.8-6.4,6.4-8.8,8.8c-2.4,2.4-8,8-8.8,8.8c-2.4,2.4-2.4,6.4,0,8.8S8.2,30.8,10.7,28.3z"/>
</svg>
