<?xml version="1.0" encoding="utf-8"?>
<!-- Generator: Adobe Illustrator 19.0.0, SVG Export Plug-In . SVG Version: 6.00 Build 0)  -->
<svg version="1.1" id="Layer_1" xmlns="http://www.w3.org/2000/svg" xmlns:xlink="http://www.w3.org/1999/xlink" x="0px" y="0px"
	 viewBox="0 0 37.5 50" style="enable-background:new 0 0 37.5 50;" xml:space="preserve">
<path id="XMLID_3238_" style="fill:#FBAB2B;" d="M31.3,0c-1.1,0-9.1,0-12.5,0C15.3,0,7.4,0,6.3,0C2.8,0,0,2.8,0,6.3s2.8,6.2,6.2,6.2
	c1.1,0,9.1,0,12.5,0c3.4,0,11.4,0,12.5,0c3.5,0,6.2-2.8,6.2-6.2S34.7,0,31.3,0z"/>
<path id="XMLID_3233_" style="fill:#FBAB2B;" d="M31.3,18.8c-1.1,0-9.1,0-12.5,0c-3.4,0-11.4,0-12.5,0C2.8,18.8,0,21.5,0,25
	s2.8,6.2,6.2,6.2c1.1,0,9.1,0,12.5,0c3.4,0,11.4,0,12.5,0c3.5,0,6.2-2.8,6.2-6.2S34.7,18.8,31.3,18.8z"/>
<path id="XMLID_3234_" style="fill:#FBAB2B;" d="M31.3,37.5c-1.1,0-9.1,0-12.5,0c-3.4,0-11.4,0-12.5,0c-3.5,0-6.2,2.8-6.2,6.2
	S2.8,50,6.3,50c1.1,0,9.1,0,12.5,0c3.4,0,11.4,0,12.5,0c3.5,0,6.2-2.8,6.2-6.2S34.7,37.5,31.3,37.5z"/>
</svg>
