<?xml version="1.0" encoding="utf-8"?>
<!-- Generator: Adobe Illustrator 19.0.0, SVG Export Plug-In . SVG Version: 6.00 Build 0)  -->
<svg version="1.1" id="Layer_1" xmlns="http://www.w3.org/2000/svg" xmlns:xlink="http://www.w3.org/1999/xlink" x="0px" y="0px"
	 viewBox="0 0 351.4 433.9" style="enable-background:new 0 0 351.4 433.9;" xml:space="preserve">
<g>
	<path style="fill:#0372B4;" d="M175.8,333.8c-56.3,32.4-112.6,64.8-168.9,97.1c-0.7,0.4-1.4,0.8-2.2,1.3C0,434.8,0,434.8,0,429.4
		c0-64.5,0-129,0-193.5c0-12,0.2-24,0.3-36c4-0.6,6.9-3.2,10.2-5.1c16.1-9.3,32.2-18.7,48.2-28.1c18.9-10.8,37.8-21.5,56.7-32.3
		c0.5-0.3,0.9-1,1.4-1.4c1.1-0.4,2.3-0.6,3.2-1.2c10.7-6.1,21.5-12.1,32-18.4c7.7-4.6,15.9-8.3,23-13.8c10-4.5,19.2-10.6,28.7-16.1
		C251.4,56.4,299,29,346.6,1.5c2.8-1.6,4.8-3.1,4.8,2.2c-0.1,64.3-0.1,128.6-0.1,192.9c0,1.1-0.3,2.3-0.4,3.4
		c-19.8-10.4-38.9-21.9-58.2-33.3c0.1-20.6,0.2-41.2,0.2-61.9c0-5.2,0-5.2-4.7-2.5c-17.9,10.2-35.8,20.4-53.7,30.6
		c-2.4-1.1-4.8-2.1-7.1-3.5c-15.7-9-31.5-17.9-47.1-27.1c-3.9-2.3-4.7-1.6-4.6,2.6c0.1,19.3,0.1,38.6,0,57.8c0,1.5-0.1,3,0.8,4.3
		c-1.8,0-3.1,1-4.6,1.9c-26.3,15.1-52.5,30.2-78.8,45.4c-1.3,0.7-2.8,1.2-3.4,2.7c-10.5,4.2-19.7,10.9-29.6,16.3
		c-1.7,0.9-1.6,2.4-1.6,3.9c0,9.8,0.1,19.6,0.1,29.4c0,22,0,44,0,66.9c7.7-4.4,14.7-8.3,21.5-12.3c12.1-7.2,24.8-13.5,36.5-21.5
		c5.4-2,10-5.3,14.9-8.1c14.5-8.4,29.4-16.2,43.6-25.3l0.3-0.1l0.3,0.2C175.7,289.1,175.7,311.4,175.8,333.8z"/>
	<path style="fill:#012B42;" d="M175.8,333.8c0-22.4,0-44.7-0.1-67.1c0,0,0.3-0.1,0.3-0.1l0.4,0.1c8.8,5.2,17.6,10.5,26.5,15.6
		c10.5,6,21.1,11.8,31.7,17.7c18.1,11.6,37.1,21.5,55.5,32.4c2.2,1.3,2.9,0.7,2.9-1.7c-0.1-21.3-0.2-42.6-0.3-63.9
		c0-9.6,0-19.3,0.1-28.9c0-2.2-0.5-3.8-2.5-4.9c-9.6-5.3-19.1-10.7-28.6-16.1c-1.5-1-3-2.1-4.5-3c-26.9-15.5-53.8-31-80.7-46.5
		c-0.9-1.3-0.8-2.8-0.8-4.3c0-19.3,0.1-38.6,0-57.8c0-4.2,0.8-4.9,4.6-2.6c15.6,9.2,31.3,18.1,47.1,27.1c2.3,1.3,4.8,2.3,7.1,3.5
		c0.5,0.5,0.8,1.1,1.4,1.4c18.9,10.8,37.9,21.6,56.8,32.4c19.3,11.3,38.4,22.8,58.2,33.3c0.1,1.3,0.4,2.6,0.4,3.9
		c0,75.3,0,150.6,0.1,225.9c0,3.9-0.6,4.6-4.2,2.6C290,399.6,232.9,366.7,175.8,333.8z"/>
	<path style="fill:#012B42;" d="M58.7,166.8c-16.1,9.4-32.1,18.8-48.2,28.1c-3.3,1.9-6.2,4.5-10.2,5.1c-0.1-1.7-0.2-3.3-0.2-5
		C0,131.7,0,68.3,0,5c0-6,0-6.1,5.3-3C61.1,34,116.8,66,172.5,98.1c0.9,0.5,1.6,1.1,2.4,1.7c-7.1,5.5-15.3,9.2-23,13.8
		c-10.5,6.3-21.3,12.3-32,18.4c-1,0.6-2.2,0.8-3.2,1.1c-19.1-10.9-38.2-21.9-58-33.2C58.7,122.8,58.7,144.8,58.7,166.8z"/>
	<path style="fill:#012B42;" d="M89.7,217.4c28.5,16.4,56.9,32.8,85.4,49.2c-14.1,9.1-29,16.9-43.6,25.3c-4.9,2.8-9.5,6.1-14.9,8.1
		c-19.3-11-38.6-22.1-58-33.1c0-9.8-0.1-19.6-0.1-29.4c0-1.5-0.1-3,1.6-3.9C70.1,228.3,79.2,221.6,89.7,217.4z"/>
	<path style="fill:#0372B4;" d="M176.4,266.7c14.1-9.1,29-17,43.5-25.5c13.9-8.2,27.9-16.2,41.9-24.3c9.5,5.4,19,10.8,28.6,16.1
		c2,1.1,2.5,2.7,2.5,4.9c-0.1,9.6-0.1,19.3-0.1,28.9c-19.4,11.1-38.8,22.1-58.1,33.2c-10.6-5.9-21.2-11.7-31.7-17.7
		C194,277.2,185.2,271.9,176.4,266.7z"/>
</g>
</svg>
