<?xml version="1.0" encoding="utf-8"?>
<!-- Generator: Adobe Illustrator 19.2.1, SVG Export Plug-In . SVG Version: 6.00 Build 0)  -->
<svg version="1.0" id="Layer_1" xmlns="http://www.w3.org/2000/svg" xmlns:xlink="http://www.w3.org/1999/xlink" x="0px" y="0px"
	 viewBox="0 0 300 150" enable-background="new 0 0 300 150" xml:space="preserve">
<g>
	<path fill="#2E3C40" d="M78.1,94c-7.3,0-10.8-5.9-10.8-11.5c0-5.7,3.5-11.5,10.9-11.5c5.8,0,10.5,4.6,10.5,11.6
		C88.8,89.3,83.7,94,78.1,94 M88.4,72L88.4,72c-2.1-2.4-5.2-5.2-10.6-5.2c-8.8,0-15.5,6.6-15.5,15.7c0,9.6,7.1,15.8,15.1,15.8
		c5,0,8.6-2.4,10.8-5h0.1v3.9h4.9V67.8h-4.9V72z"/>
	<path fill="#2E3C40" d="M131.2,66.8c-5.1,0-8.7,3.1-10.2,6.1c-1.2-3.4-5-6.1-9.6-6.1c-3.8,0-6.8,2-8.8,4.7h-0.1v-3.7h-4.9v29.5h4.9
		V80.9c0-6.2,3.1-9.7,8.1-9.7c4.4,0,7,3.7,7,8.6v17.6h4.9V80.9c0-6.8,3.9-9.7,8-9.7c5,0,7.1,4,7.1,8.6v17.6h4.9V80.1
		C142.5,71.4,137.9,66.8,131.2,66.8"/>
	<path fill="#2E3C40" d="M196.5,93.9c-5.7,0-10.7-4.7-10.7-11.4c0-6.5,4.4-11.3,10.7-11.3c6.5,0,10.7,5.1,10.7,11.3
		C207.2,89,202.7,93.9,196.5,93.9 M196.5,66.8c-8.9,0-15.8,6.6-15.8,15.7c0,8.9,6.8,15.8,15.8,15.8c9.1,0,15.8-7.1,15.8-15.8
		C212.3,73.6,205.7,66.8,196.5,66.8"/>
	<path fill="#2E3C40" d="M231.2,93.9c-5.7,0-10.7-4.7-10.7-11.4c0-6.5,4.4-11.3,10.7-11.3c6.5,0,10.7,5.1,10.7,11.3
		C241.9,89,237.4,93.9,231.2,93.9 M231.2,66.8c-8.9,0-15.8,6.6-15.8,15.7c0,8.9,6.8,15.8,15.8,15.8c9.1,0,15.8-7.1,15.8-15.8
		C246.9,73.6,240.4,66.8,231.2,66.8"/>
	<polygon fill="#2E3C40" points="270,80.4 254.4,80.4 254.4,67.9 250.8,67.9 250.8,97.3 254.4,97.3 254.4,83.7 270,83.7 270,97.3 
		273.6,97.3 273.6,67.9 270,67.9 	"/>
	<path fill="#2E3C40" d="M282.7,81.7V71.2h5.3c3.8,0,5.9,1.9,5.9,5.3c0,2.8-1.9,5.2-5.8,5.2H282.7z M290.7,84.7
		c3.7-0.7,6.8-4,6.8-8.1c0-4.1-2.6-8.6-10-8.6h-8.5v29.4h3.6V85h3.9l8.9,12.3h4.5L290.7,84.7z"/>
	<path fill="#2E3C40" d="M42.4,93.8c-6.2,0-11.4-4.8-11.4-11.3c0-6.5,4.4-11.8,11.5-11.8c7.1,0,11.2,5.7,11.2,11.7
		C53.8,88.9,49.4,93.8,42.4,93.8 M42.9,66c-5.7,0-8.7,1.9-10.8,4.1l-0.6,0.6l0-19h-4.9v31.1c0,9.6,7.4,15.5,15.8,15.5
		c9.3,0,16.4-7.2,16.4-16.4C58.8,73.3,51.5,66,42.9,66"/>
	<path fill="#2E3C40" d="M161.8,93.9c-6.2,0-11.4-4.8-11.4-11.3c0-6.5,4.4-11.8,11.5-11.8c7.1,0,11.2,5.7,11.2,11.7
		C173.2,88.9,168.7,93.9,161.8,93.9 M162.3,66.1c-5.7,0-8.7,1.9-10.8,4.1l-0.6,0.6l0-16.1H146v28.2c0,9.6,7.4,15.5,15.8,15.5
		c9.3,0,16.4-7.2,16.4-16.4C178.2,73.4,170.8,66.1,162.3,66.1"/>
	<path fill="#2E3C40" d="M24.3,72.3c0,0-2.1-0.4-3.9-0.7c-2-0.3-2.9-0.6-5.5-1.7c-2.6-1.1-4.9-3.6-7.2-6.5C5.4,60.6,0,56,0,56
		s1.7,0.1,3.3,0.5c1.4,0.3,5,1.5,8.7,3.4c0.8,0.4,1.3,0.7,2.1,1.2c1.2,0.8,2.5,1.9,3.8,3.1c1.5,1.5,2.7,2.7,3.8,4
		c-1.2-2.2-4.3-10-10.3-16.5c-0.6-0.6,4.1,2.3,5.4,3.6c3.7,3.9,4,6,5.3,9.8L24.3,72.3z"/>
</g>
</svg>
