<?xml version="1.0" encoding="utf-8"?>
<!-- Generator: Adobe Illustrator 19.0.0, SVG Export Plug-In . SVG Version: 6.00 Build 0)  -->
<svg version="1.1" id="Layer_1" xmlns="http://www.w3.org/2000/svg" xmlns:xlink="http://www.w3.org/1999/xlink" x="0px" y="0px"
	 viewBox="0 0 900 469" style="enable-background:new 0 0 900 469;" xml:space="preserve">
<g id="XMLID_21980_">
	<path id="XMLID_21986_" style="fill:#FFE7B6;" d="M93.7,0c-2.9,0-5.7,0.7-8.2,1.9C85.2,0.6,84.8,0,84.4,0c-0.6,0-1.1,1.3-1.7,3.6
		C78,7,75,12.5,75,18.8c0,4.7,0,123.6,0,206.2c0,92.9,0,211.8,0,215.6c0,5.2,4.2,9.4,9.4,9.4s9.4-4.2,9.4-9.4c0-3.9,0-122.7,0-215.6
		c0-78.6-1.5-187.5,0-187.5c10.4,0,18.8-8.4,18.8-18.8C112.5,8.4,104.1,0,93.7,0z"/>
	<path id="XMLID_21985_" style="fill:#FFE7B6;" d="M825,18.8c0-6.2-3-11.7-7.7-15.1c-0.5-2.4-1.1-3.6-1.7-3.6
		c-0.4,0-0.8,0.6-1.2,1.9c-2.5-1.2-5.2-1.9-8.2-1.9c-10.4,0-18.8,8.4-18.8,18.8c0,10.4,8.4,18.8,18.8,18.8c1.5,0,0,108.9,0,187.5
		c0,92.9,0,211.8,0,215.6c0,5.2,4.2,9.4,9.4,9.4s9.4-4.2,9.4-9.4c0-3.9,0-122.7,0-215.6C825,142.4,825,23.5,825,18.8z"/>
	<path id="XMLID_21984_" style="fill:#FFE7B6;" d="M56.2,19c-2.9,0-5.7,0.7-8.2,1.9c-0.4-1.2-0.8-1.9-1.2-1.9
		c-0.6,0-1.1,1.3-1.7,3.6c-4.7,3.4-7.7,8.9-7.7,15.1c0,4.7,0,123.6,0,206.2c0,92.9,0,211.8,0,215.6c0,5.2,4.2,9.4,9.4,9.4
		s9.4-4.2,9.4-9.4c0-3.9,0-122.7,0-215.6c0-78.6-1.5-187.5,0-187.5c10.4,0,18.8-8.4,18.8-18.8C75,27.4,66.6,19,56.2,19z"/>
	<path id="XMLID_21983_" style="fill:#FFE7B6;" d="M862.5,37.8c0-6.2-3-11.7-7.7-15.1c-0.5-2.4-1.1-3.6-1.7-3.6
		c-0.4,0-0.8,0.6-1.2,1.9c-2.5-1.2-5.2-1.9-8.2-1.9c-10.4,0-18.8,8.4-18.8,18.8c0,10.4,8.4,18.8,18.8,18.8c1.5,0,0,108.9,0,187.5
		c0,92.9,0,211.8,0,215.6c0,5.2,4.2,9.4,9.4,9.4s9.4-4.2,9.4-9.4c0-3.9,0-122.7,0-215.6C862.5,161.4,862.5,42.5,862.5,37.8z"/>
	<path id="XMLID_21982_" style="fill:#FFE7B6;" d="M890.6,18.8c-0.2,0-69.8-18.8-75-18.8C814.3,0,85.7,0,84.4,0
		c-5.2,0-74.8,18.8-75,18.8c-5.2,0-9.4,4.2-9.4,9.4c0,1.4,0,17.4,0,18.8c0,5.2,4.2,9.4,9.4,9.4c1.4,0,879.9,0,881.2,0
		c5.2,0,9.4-4.2,9.4-9.4c0-1.4,0-17.4,0-18.8C900,22.9,895.8,18.8,890.6,18.8z"/>
	<path id="XMLID_21981_" style="fill:#FFDD96;" d="M900,28.4c0-5.2-4.2-9.4-9.4-9.4c-1.4,0-879.9,0-881.2,0C4.2,19,0,23.2,0,28.4
		c0,1.4,0,17.4,0,18.8c0,5.2,4.2,9.4,9.4,9.4c1.4,0,879.9,0,881.2,0c5.2,0,9.4-4.2,9.4-9.4C900,45.8,900,29.7,900,28.4z"/>
</g>
</svg>
