<?xml version="1.0" encoding="utf-8"?>
<!-- Generator: Adobe Illustrator 19.0.0, SVG Export Plug-In . SVG Version: 6.00 Build 0)  -->
<svg version="1.1" id="Layer_1" xmlns="http://www.w3.org/2000/svg" xmlns:xlink="http://www.w3.org/1999/xlink" x="0px" y="0px"
	 viewBox="-337.8 260.2 202.2 202.2" style="enable-background:new -337.8 260.2 202.2 202.2;" xml:space="preserve">
<g id="XMLID_15_">
	
		<linearGradient id="XMLID_2_" gradientUnits="userSpaceOnUse" x1="-236.6589" y1="404.8" x2="-236.6589" y2="479.8" gradientTransform="matrix(1 0 0 -1 0 795.8)">
		<stop  offset="0" style="stop-color:#FFD375"/>
		<stop  offset="1" style="stop-color:#FFDD96"/>
	</linearGradient>
	<path id="XMLID_29189_" style="fill:url(#XMLID_2_);" d="M-206.5,362.3c-3.4-3.4-8.3-4.4-12.6-3.1c-1.9,0.6-3.6,1.6-5.1,3.1l0,0
		l0,0c-2.3,2.3-5.4,3.7-8.8,3.7c-6.9,0-12.5-5.6-12.5-12.5c0-6.9,5.6-12.5,12.5-12.5c3.5,0,6.6,1.4,8.8,3.7l0,0l0,0
		c1.5,1.5,3.2,2.5,5.1,3.1c4.3,1.4,9.2,0.3,12.6-3.1c0.9-0.9,1.7-2,2.3-3.1c2.4-4.7,1.7-10.6-2.3-14.6c-6.8-6.8-16.2-11-26.5-11
		c-20.7,0-37.5,16.8-37.5,37.5c0,6.4,1.6,12.4,4.4,17.6c4.3,8,11.3,14.2,19.9,17.5c4.1,1.5,8.6,2.4,13.2,2.4
		c10.4,0,19.7-4.2,26.5-11l0,0c4-4,4.7-9.9,2.3-14.6C-204.8,364.3-205.6,363.3-206.5,362.3z"/>
	<path id="XMLID_29188_" style="opacity:0.25;fill:none;stroke:#F57E30;stroke-miterlimit:10;enable-background:new    ;" d="
		M-253.8,384.7"/>
	
		<linearGradient id="XMLID_3_" gradientUnits="userSpaceOnUse" x1="-254.9" y1="389.2" x2="-254.9" y2="426.7" gradientTransform="matrix(1 0 0 -1 0 795.8)">
		<stop  offset="0" style="stop-color:#FFD375"/>
		<stop  offset="1" style="stop-color:#FFDD96"/>
	</linearGradient>
	<path id="XMLID_29187_" style="fill:url(#XMLID_3_);" d="M-254.9,369.1c-5.6,0-12.5,20.3-12.5,25c0,6.9,5.6,12.5,12.5,12.5
		s12.5-5.6,12.5-12.5C-242.4,389.4-249.3,369.1-254.9,369.1z"/>
	<path id="XMLID_29186_" style="fill:none;stroke:#FFCA50;stroke-linecap:round;stroke-miterlimit:10;" d="M-206.5,362.3
		c-3.4-3.4-8.3-4.4-12.6-3.1c-1.9,0.6-3.6,1.6-5.1,3.1l0,0l0,0c-2.3,2.3-5.4,3.7-8.8,3.7c-6.9,0-12.5-5.6-12.5-12.5
		c0-6.9,5.6-12.5,12.5-12.5c3.5,0,6.6,1.4,8.8,3.7l0,0l0,0c1.5,1.5,3.2,2.5,5.1,3.1c4.3,1.4,9.2,0.3,12.6-3.1c0.9-0.9,1.7-2,2.3-3.1
		c2.4-4.7,1.7-10.6-2.3-14.6c-6.8-6.8-16.2-11-26.5-11c-20.7,0-37.5,16.8-37.5,37.5c0,6.4,1.6,12.4,4.4,17.6
		c1.2,2.2,2.5,4.2,4.1,6.1c-3,6.2-5.4,14.2-5.4,16.9c0,6.9,5.6,12.5,12.5,12.5s12.5-5.6,12.5-12.5c0-1-0.3-2.6-0.8-4.5
		c3.2,0.9,6.6,1.4,10.2,1.4c10.4,0,19.7-4.2,26.5-11l0,0c4-4,4.7-9.9,2.3-14.6C-204.8,364.3-205.6,363.3-206.5,362.3z"/>
	<path id="XMLID_29239_" style="fill:#FFE7B6;" d="M-245.9,396.9c0,3.5-2.8,6.2-6.2,6.2C-255.5,403.1-245.9,393.4-245.9,396.9z"/>
	<path id="XMLID_29185_" style="fill:none;stroke:#FFCA50;stroke-linecap:round;stroke-miterlimit:10;" d="M-259.2,372.4
		c-4.3,5.9-8.2,18.2-8.2,21.8c0,6.9,5.6,12.5,12.5,12.5s12.5-5.6,12.5-12.5c0-2.1-1.4-7.3-3.4-12.5"/>
</g>
</svg>
