<?xml version="1.0" encoding="utf-8"?>
<!-- Generator: Adobe Illustrator 19.0.0, SVG Export Plug-In . SVG Version: 6.00 Build 0)  -->
<svg version="1.1" id="Layer_1" xmlns="http://www.w3.org/2000/svg" xmlns:xlink="http://www.w3.org/1999/xlink" x="0px" y="0px"
	 viewBox="-350 289.8 228 215.5" style="enable-background:new -350 289.8 228 215.5;" xml:space="preserve">
<path id="XMLID_22010_" style="fill:none;stroke:#FFE6B5;stroke-width:3;stroke-miterlimit:10;" d="M-211,466.3
	c0-13.8-11.2-25-25-25s-25,11.2-25,25c0,4.8-12.5,18.1-12.5,25c0,6.9,5.6,12.5,12.5,12.5c3.6,0,6.9-1.5,9.1-4
	c4.8,0.6,10.2,0.9,15.9,0.9s11-0.3,15.9-0.9c2.3,2.5,5.5,4,9.1,4c6.9,0,12.5-5.6,12.5-12.5C-198.5,484.3-211,471-211,466.3z"/>
<path id="XMLID_22009_" style="fill:none;stroke:#FFE6B5;stroke-width:3;stroke-miterlimit:10;" d="M-273.5,491.3
	c0,6.9,5.6,12.5,12.5,12.5c3.6,0,46.4,0,50,0c6.9,0,12.5-5.6,12.5-12.5C-198.5,484.3-273.5,484.3-273.5,491.3z"/>
<g id="XMLID_22002_">
	
		<rect id="XMLID_22005_" x="-336" y="466.3" style="fill:none;stroke:#FFE6B5;stroke-width:3;stroke-miterlimit:10;" width="200" height="0"/>
	<path id="XMLID_22004_" style="fill:none;stroke:#FFE6B5;stroke-width:3;stroke-miterlimit:10;" d="M-123.5,303.8
		c0-6.9-5.6-12.5-12.5-12.5h-200c-6.9,0-12.5,5.6-12.5,12.5v137.5h225V303.8z"/>
	<path id="XMLID_22003_" style="fill:none;stroke:#FFE6B5;stroke-width:3;stroke-miterlimit:10;" d="M-123.5,453.8v-12.5h-225v12.5
		c0,6.9,5.6,12.5,12.5,12.5h200C-129.1,466.3-123.5,460.7-123.5,453.8z"/>
</g>
<rect id="XMLID_22001_" x="-336" y="303.8" style="fill:none;stroke:#FFE6B5;stroke-width:3;stroke-miterlimit:10;" width="200" height="125"/>
</svg>
